<?xml version="1.0" encoding="UTF-8" standalone="no"?>
<!-- Created with Inkscape (http://www.inkscape.org/) -->

<svg
   width="13.480778mm"
   height="15.925217mm"
   viewBox="0 0 13.480778 15.925217"
   version="1.1"
   id="svg5"
   xml:space="preserve"
   inkscape:version="1.2.2 (b0a8486541, 2022-12-01)"
   sodipodi:docname="braman icons backup.svg"
   xmlns:inkscape="http://www.inkscape.org/namespaces/inkscape"
   xmlns:sodipodi="http://sodipodi.sourceforge.net/DTD/sodipodi-0.dtd"
   xmlns="http://www.w3.org/2000/svg"
   xmlns:svg="http://www.w3.org/2000/svg"><sodipodi:namedview
     id="namedview7"
     pagecolor="#ffffff"
     bordercolor="#666666"
     borderopacity="1.0"
     inkscape:showpageshadow="2"
     inkscape:pageopacity="0.0"
     inkscape:pagecheckerboard="0"
     inkscape:deskcolor="#d1d1d1"
     inkscape:document-units="mm"
     showgrid="false"
     inkscape:zoom="3.3638608"
     inkscape:cx="178.66375"
     inkscape:cy="308.27673"
     inkscape:window-width="2153"
     inkscape:window-height="1278"
     inkscape:window-x="191"
     inkscape:window-y="35"
     inkscape:window-maximized="0"
     inkscape:current-layer="layer2" /><defs
     id="defs2"><inkscape:path-effect
       effect="mirror_symmetry"
       start_point="65.086732,124.86427"
       end_point="65.086732,126.98795"
       center_point="65.086732,125.92611"
       id="path-effect3381-9"
       is_visible="true"
       lpeversion="1.2"
       lpesatellites=""
       mode="free"
       discard_orig_path="false"
       fuse_paths="false"
       oposite_fuse="false"
       split_items="false"
       split_open="false"
       link_styles="false" /></defs><g
     inkscape:label="Calque 1"
     inkscape:groupmode="layer"
     id="layer1"
     transform="translate(-33.510243,-65.563055)"><path
       style="fill:none;stroke:#ffffff;stroke-width:0.8;stroke-linecap:butt;stroke-linejoin:miter;stroke-dasharray:none;stroke-opacity:1"
       d="m 35.236926,73.936809 8.27501,0.0329 c 0,0 0.40914,3.36473 -0.46569,4.71424 -0.7856,1.21185 -2.30285,1.67357 -3.83301,1.5824 -1.36582,-0.0814 -2.8334,-0.70048 -3.47479,-1.81317 -0.6341,-1.400298 -0.598787,-3.009134 -0.50152,-4.51637 z"
       id="path2420-9"
       sodipodi:nodetypes="ccsscc" /><path
       id="path2474-6"
       style="fill:none;fill-opacity:1;stroke:#fefefe;stroke-width:0.8;stroke-linecap:round;stroke-linejoin:round;stroke-dasharray:none;stroke-opacity:1;stop-color:#000000"
       d="m 44.487626,74.733349 a 1.6044409,1.4714033 1.8704266 0 1 0.5471,-0.0695 1.6044409,1.4714033 1.8704266 0 1 1.55556,1.52298 v 0 a 1.6044409,1.4714033 1.8704266 0 1 -1.65161,1.41826 1.6044409,1.4714033 1.8704266 0 1 -0.54137,-0.10503" /><path
       style="fill:none;stroke:#fefefe;stroke-width:1.41241;stroke-linecap:round;stroke-linejoin:round;stroke-dasharray:none;stroke-opacity:1"
       d="m 54.193061,124.86427 c 1.651749,1.53377 6.489009,1.76973 6.489009,1.76973 l -0.825873,0.35395 h 5.230535 m 10.893671,-2.12368 c -1.651749,1.53377 -6.489009,1.76973 -6.489009,1.76973 l 0.825873,0.35395 h -5.230535"
       id="path3379-2"
       inkscape:path-effect="#path-effect3381-9"
       inkscape:original-d="m 54.193061,124.86427 c 1.651749,1.53377 6.489009,1.76973 6.489009,1.76973 l -0.825873,0.35395 h 5.230535"
       class="UnoptimicedTransforms"
       transform="matrix(0.52433771,0,0,0.61185001,5.4650682,3.3586007)" /><path
       style="fill:none;stroke:#ababab;stroke-width:0.8;stroke-linecap:butt;stroke-linejoin:miter;stroke-dasharray:none;stroke-opacity:1"
       d="m 36.945476,73.040229 c -0.60793,-0.72263 -1.17372,-1.28583 -0.55727,-1.95812 0.52499,-0.57255 1.4698,0.0734 1.57048,-0.4196 0.1179,-0.57736 -1.01321,-0.83919 -1.64647,-1.7017 -0.46011,-1.01459 0.81792,-1.97229 1.95043,-1.56183 0.56081,0.0939 0.93298,0.81249 1.39318,0.74595 0.62708,-0.0907 0.36604,-1.21701 1.03854,-1.67839 2.4533,-1.48346 4.22537,0.55495 3.49559,2.3311 -0.3353,1.3365 -3.88261,1.44838 -4.05286,2.26116 -0.0985,0.7968 0.80697,0.87036 0.35463,1.37535 -0.78633,0.38058 -3.69345,-0.90748 -2.55837,0.58277"
       id="path3383-8"
       sodipodi:nodetypes="cssccsccccc" /></g></svg>
