<?xml version="1.0" encoding="UTF-8" standalone="no"?>
<!-- Created with Inkscape (http://www.inkscape.org/) -->

<svg
   width="10.479054mm"
   height="21.315487mm"
   viewBox="0 0 10.479055 21.315487"
   version="1.1"
   id="svg5"
   xml:space="preserve"
   inkscape:version="1.2.2 (b0a8486541, 2022-12-01)"
   sodipodi:docname="coupe.svg"
   xmlns:inkscape="http://www.inkscape.org/namespaces/inkscape"
   xmlns:sodipodi="http://sodipodi.sourceforge.net/DTD/sodipodi-0.dtd"
   xmlns="http://www.w3.org/2000/svg"
   xmlns:svg="http://www.w3.org/2000/svg"><sodipodi:namedview
     id="namedview7"
     pagecolor="#ffffff"
     bordercolor="#666666"
     borderopacity="1.0"
     inkscape:showpageshadow="2"
     inkscape:pageopacity="0.0"
     inkscape:pagecheckerboard="0"
     inkscape:deskcolor="#d1d1d1"
     inkscape:document-units="mm"
     showgrid="false"
     inkscape:zoom="2.3786088"
     inkscape:cx="0.42041382"
     inkscape:cy="19.759449"
     inkscape:window-width="2153"
     inkscape:window-height="1278"
     inkscape:window-x="191"
     inkscape:window-y="35"
     inkscape:window-maximized="0"
     inkscape:current-layer="layer1" /><defs
     id="defs2"><inkscape:path-effect
       effect="mirror_symmetry"
       start_point="27.919857,101.89079"
       end_point="27.919857,123.80399"
       center_point="27.919857,112.84739"
       id="path-effect2160-2"
       is_visible="true"
       lpeversion="1.2"
       lpesatellites=""
       mode="free"
       discard_orig_path="false"
       fuse_paths="false"
       oposite_fuse="false"
       split_items="false"
       split_open="false"
       link_styles="false" /></defs><g
     inkscape:groupmode="layer"
     id="layer2"
     inkscape:label="Calque 2"
     transform="translate(-107.0589,-103.33861)"><path
       id="path2340-4-8"
       style="fill:none;fill-opacity:1;stroke:#8c8c8c;stroke-width:0.8;stroke-linecap:round;stroke-dasharray:none;stroke-opacity:1;stop-color:#000000"
       d="m 115.00415,116.46758 v 0 c 0.18027,1.4406 -0.83955,2.75433 -2.27781,2.9343 -1.10131,0.13781 -2.17037,-0.43318 -2.67002,-1.42604"
       sodipodi:nodetypes="cssc" /><path
       style="fill:none;stroke:#000000;stroke-width:1.20899;stroke-linecap:round;stroke-linejoin:round;stroke-dasharray:none;stroke-opacity:1"
       d="m 20.937099,105.77495 c 0.645514,11.47247 4.495393,13.17289 4.495393,13.17289 l 0.707613,3.07639 v 0 l -3.338824,1.82108 5.118576,-0.0413 m 6.982758,-18.02906 c -0.645514,11.47247 -4.495393,13.17289 -4.495393,13.17289 l -0.707613,3.07639 v 0 l 3.338824,1.82108 -5.118576,-0.0413"
       id="path1322-2"
       inkscape:path-effect="#path-effect2160-2"
       inkscape:original-d="m 20.937099,105.77495 c 0.645514,11.47247 4.495393,13.17289 4.495393,13.17289 l 0.707613,3.07639 v 0 l -3.338824,1.82108 5.118576,-0.0413"
       class="UnoptimicedTransforms"
       transform="matrix(0.66761509,0,0,0.6558601,93.832871,43.032438)"
       sodipodi:nodetypes="cccccc" /><path
       style="fill:none;stroke:#8c8c8c;stroke-width:0.8;stroke-linecap:round;stroke-linejoin:round;stroke-dasharray:none;stroke-opacity:1"
       d="m 108.67975,112.31786 c 1.35212,-0.42548 -1.44999,-1.37513 -0.54217,-2.13028 0.90783,-0.75515 8.88635,2.76325 8.92691,-0.031 0.0406,-2.7943 -7.92553,-0.0274 -7.97778,-1.45655 -0.0632,-1.72886 6.06266,-0.26949 6.3139,-1.43659 0.45055,-2.09301 -5.02985,0.39803 -5.24139,-0.98224 -0.11285,-0.73637 1.14424,-0.35905 1.48363,-0.80851 0.35707,-0.47289 0.39084,-1.73416 0.39084,-1.73416 l 1.18557,1.68781"
       id="path2284"
       sodipodi:nodetypes="czzsssacc" /><path
       style="fill:none;stroke:#000000;stroke-width:0.8;stroke-linecap:round;stroke-linejoin:round;stroke-dasharray:none;stroke-opacity:1"
       d="m 108.0967,108.99763 -0.6378,-4.95318"
       id="path2418"
       sodipodi:nodetypes="cc" /><ellipse
       style="fill:none;fill-opacity:1;stroke:#000000;stroke-width:0.8;stroke-dasharray:none;stroke-opacity:1;stop-color:#000000"
       id="path2340"
       cx="111.76866"
       cy="114.59509"
       rx="2.6245189"
       ry="2.6287706" /></g></svg>
