<?xml version="1.0" encoding="UTF-8" standalone="no"?>
<!-- Created with Inkscape (http://www.inkscape.org/) -->

<svg
   width="19.590027mm"
   height="14.88554mm"
   viewBox="0 0 19.590028 14.88554"
   version="1.1"
   id="svg5"
   xml:space="preserve"
   inkscape:version="1.2.2 (b0a8486541, 2022-12-01)"
   sodipodi:docname="coupe.svg"
   xmlns:inkscape="http://www.inkscape.org/namespaces/inkscape"
   xmlns:sodipodi="http://sodipodi.sourceforge.net/DTD/sodipodi-0.dtd"
   xmlns="http://www.w3.org/2000/svg"
   xmlns:svg="http://www.w3.org/2000/svg"><sodipodi:namedview
     id="namedview7"
     pagecolor="#ffffff"
     bordercolor="#666666"
     borderopacity="1.0"
     inkscape:showpageshadow="2"
     inkscape:pageopacity="0.0"
     inkscape:pagecheckerboard="0"
     inkscape:deskcolor="#d1d1d1"
     inkscape:document-units="mm"
     showgrid="false"
     inkscape:zoom="2.3786088"
     inkscape:cx="0.42041382"
     inkscape:cy="19.759449"
     inkscape:window-width="2153"
     inkscape:window-height="1278"
     inkscape:window-x="191"
     inkscape:window-y="35"
     inkscape:window-maximized="0"
     inkscape:current-layer="layer1" /><defs
     id="defs2"><inkscape:path-effect
       effect="mirror_symmetry"
       start_point="102.58601,107.45252"
       end_point="102.58601,113.8485"
       center_point="102.58601,110.65051"
       id="path-effect6492"
       is_visible="true"
       lpeversion="1.2"
       lpesatellites=""
       mode="free"
       discard_orig_path="false"
       fuse_paths="false"
       oposite_fuse="false"
       split_items="false"
       split_open="false"
       link_styles="false" /></defs><g
     inkscape:groupmode="layer"
     id="layer2"
     inkscape:label="Calque 2"
     transform="translate(-85.320159,-109.44761)"><path
       style="fill:none;stroke:#000000;stroke-width:0.75048;stroke-linecap:round;stroke-linejoin:round;stroke-dasharray:none;stroke-opacity:1"
       d="m 91.455551,114.14473 c 0,0 -0.174554,1.41358 -0.305469,1.94624 -0.130915,0.53266 -1.047324,1.59797 -1.047324,1.59797 0,0 -0.698216,-0.041 -0.960047,-0.69655 -0.43192,-1.26971 -0.364548,-2.82783 -1.527347,-3.64665 l -1.920093,0.24584 c 0,0 0.960047,0.32779 1.265516,1.06531 0.30547,0.73753 -0.436384,3.81056 0.610939,5.53146 1.047324,1.7209 2.618309,1.84382 2.618309,1.84382 0,0 1.155118,0.99873 1.276426,1.17799 0.37975,0.56117 -0.360017,0.69655 -0.360017,0.69655 l 8.116762,0.0512 c 0,0 -0.761329,-0.13766 -0.08727,-0.9219 0.319804,-0.37209 0.960034,-0.59412 1.789164,-1.4136 0.82914,-0.81947 0.7855,-1.84382 0.52366,-2.3355 -0.26183,-0.49169 -1.17823,-1.14727 -1.745524,-2.33551 -0.5673,-1.18823 -0.654578,-2.82718 -0.654578,-2.82718"
       id="path6486"
       sodipodi:nodetypes="csccccsscsccssssc" /><path
       style="fill:none;stroke:#000000;stroke-width:1.39597;stroke-linecap:round;stroke-linejoin:round;stroke-dasharray:none;stroke-opacity:1"
       d="m 96.885238,113.8485 c 0,0 0.61179,-1.30701 2.335924,-2.00222 1.724138,-0.69522 2.669628,-0.69522 2.669628,-0.69522 0,0 -0.80645,-0.13904 -0.88988,-0.77864 -0.0834,-0.6396 0.44478,-1.86857 0.69522,-2.44716 0.20162,-0.4658 0.88988,-0.47274 0.88988,-0.47274 m 5.70077,6.39598 c 0,0 -0.61179,-1.30701 -2.33592,-2.00222 -1.72414,-0.69522 -2.66963,-0.69522 -2.66963,-0.69522 0,0 0.80645,-0.13904 0.88988,-0.77864 0.0834,-0.6396 -0.44478,-1.86857 -0.69522,-2.44716 -0.20162,-0.4658 -0.88988,-0.47274 -0.88988,-0.47274"
       id="path6490"
       sodipodi:nodetypes="cscssc"
       transform="matrix(0.53834241,0,0,0.59531322,39.992716,45.895221)"
       inkscape:original-d="m 96.885238,113.8485 c 0,0 0.61179,-1.30701 2.335924,-2.00222 1.724138,-0.69522 2.669628,-0.69522 2.669628,-0.69522 0,0 -0.80645,-0.13904 -0.88988,-0.77864 -0.0834,-0.6396 0.44478,-1.86857 0.69522,-2.44716 0.20162,-0.4658 0.88988,-0.47274 0.88988,-0.47274"
       inkscape:path-effect="#path-effect6492"
       class="UnoptimicedTransforms" /><path
       style="fill:none;stroke:#000000;stroke-width:0.792871;stroke-linecap:round;stroke-linejoin:round;stroke-dasharray:none;stroke-opacity:1"
       d="m 101.6876,116.93392 c -0.66899,-0.15662 -1.1771,-0.48663 -1.33638,-1.05045 -0.434276,-2.37618 2.37026,-2.94265 3.46148,-1.83465 1.9328,2.19873 -0.69159,3.48048 -1.18257,5.65544 0.0674,0.87719 0.38919,0.98096 0.81894,0.86631"
       id="path6494"
       sodipodi:nodetypes="ccccc" /><ellipse
       style="font-variation-settings:normal;fill:none;fill-opacity:1;stroke:#8d8d8d;stroke-width:0.72606;stroke-linecap:round;stroke-linejoin:round;stroke-miterlimit:4;stroke-dasharray:none;stroke-dashoffset:0;stroke-opacity:1;stop-color:#000000"
       id="path6548"
       cx="92.38829"
       cy="117.64159"
       rx="0.33477083"
       ry="0.37959498" /><ellipse
       style="font-variation-settings:normal;fill:none;fill-opacity:1;stroke:#8d8d8d;stroke-width:0.761922;stroke-linecap:round;stroke-linejoin:round;stroke-miterlimit:4;stroke-dasharray:none;stroke-dashoffset:0;stroke-opacity:1;stop-color:#000000"
       id="path6548-0"
       cx="93.958069"
       cy="120.11167"
       rx="0.38632733"
       ry="0.3622326" /><ellipse
       style="font-variation-settings:normal;fill:none;fill-opacity:1;stroke:#8d8d8d;stroke-width:0.761922;stroke-linecap:round;stroke-linejoin:round;stroke-miterlimit:4;stroke-dasharray:none;stroke-dashoffset:0;stroke-opacity:1;stop-color:#000000"
       id="path6548-7"
       cx="95.203423"
       cy="117.64159"
       rx="0.38632733"
       ry="0.3622326" /><ellipse
       style="font-variation-settings:normal;fill:none;fill-opacity:1;stroke:#8d8d8d;stroke-width:0.761922;stroke-linecap:round;stroke-linejoin:round;stroke-miterlimit:4;stroke-dasharray:none;stroke-dashoffset:0;stroke-opacity:1;stop-color:#000000"
       id="path6548-7-6"
       cx="96.944283"
       cy="120.11167"
       rx="0.38632733"
       ry="0.3622326" /><ellipse
       style="font-variation-settings:normal;fill:none;fill-opacity:1;stroke:#8d8d8d;stroke-width:0.737095;stroke-linecap:round;stroke-linejoin:round;stroke-miterlimit:4;stroke-dasharray:none;stroke-dashoffset:0;stroke-opacity:1;stop-color:#000000"
       id="path6548-7-3"
       cx="93.676056"
       cy="115.42954"
       rx="0.34958145"
       ry="0.37464589" /><ellipse
       style="font-variation-settings:normal;fill:none;fill-opacity:1;stroke:#8d8d8d;stroke-width:0.726687;stroke-linecap:round;stroke-linejoin:round;stroke-miterlimit:4;stroke-dasharray:none;stroke-dashoffset:0;stroke-opacity:1;stop-color:#000000"
       id="path6548-7-0"
       cx="96.846008"
       cy="115.42954"
       rx="0.33512232"
       ry="0.37985042" /><ellipse
       style="font-variation-settings:normal;fill:none;fill-opacity:1;stroke:#8d8d8d;stroke-width:0.710745;stroke-linecap:round;stroke-linejoin:round;stroke-miterlimit:4;stroke-dasharray:none;stroke-dashoffset:0;stroke-opacity:1;stop-color:#000000"
       id="path6548-00"
       cx="99.580093"
       cy="120.16426"
       rx="0.31464973"
       ry="0.38701019" /><ellipse
       style="font-variation-settings:normal;fill:none;fill-opacity:1;stroke:#8d8d8d;stroke-width:0.72606;stroke-linecap:round;stroke-linejoin:round;stroke-miterlimit:4;stroke-dasharray:none;stroke-dashoffset:0;stroke-opacity:1;stop-color:#000000"
       id="path6548-6"
       cx="97.878418"
       cy="117.64159"
       rx="0.33477083"
       ry="0.37959498" /><ellipse
       style="font-variation-settings:normal;fill:none;fill-opacity:1;stroke:#8d8d8d;stroke-width:0.718475;stroke-linecap:round;stroke-linejoin:round;stroke-miterlimit:4;stroke-dasharray:none;stroke-dashoffset:0;stroke-opacity:1;stop-color:#000000"
       id="path6548-9"
       cx="90.887794"
       cy="120.11167"
       rx="0.3246724"
       ry="0.38326707" /></g></svg>
