<?xml version="1.0" encoding="UTF-8" standalone="no"?>
<!-- Created with Inkscape (http://www.inkscape.org/) -->

<svg
   width="13.480778mm"
   height="15.925215mm"
   viewBox="0 0 13.480778 15.925215"
   version="1.1"
   id="svg5"
   xml:space="preserve"
   inkscape:version="1.2.2 (b0a8486541, 2022-12-01)"
   sodipodi:docname="coupe.svg"
   xmlns:inkscape="http://www.inkscape.org/namespaces/inkscape"
   xmlns:sodipodi="http://sodipodi.sourceforge.net/DTD/sodipodi-0.dtd"
   xmlns="http://www.w3.org/2000/svg"
   xmlns:svg="http://www.w3.org/2000/svg"><sodipodi:namedview
     id="namedview7"
     pagecolor="#ffffff"
     bordercolor="#666666"
     borderopacity="1.0"
     inkscape:showpageshadow="2"
     inkscape:pageopacity="0.0"
     inkscape:pagecheckerboard="0"
     inkscape:deskcolor="#d1d1d1"
     inkscape:document-units="mm"
     showgrid="false"
     inkscape:zoom="2.3786088"
     inkscape:cx="0.42041382"
     inkscape:cy="19.759449"
     inkscape:window-width="2153"
     inkscape:window-height="1278"
     inkscape:window-x="191"
     inkscape:window-y="35"
     inkscape:window-maximized="0"
     inkscape:current-layer="layer1" /><defs
     id="defs2"><inkscape:path-effect
       effect="mirror_symmetry"
       start_point="65.086732,124.86427"
       end_point="65.086732,126.98795"
       center_point="65.086732,125.92611"
       id="path-effect3381"
       is_visible="true"
       lpeversion="1.2"
       lpesatellites=""
       mode="free"
       discard_orig_path="false"
       fuse_paths="false"
       oposite_fuse="false"
       split_items="false"
       split_open="false"
       link_styles="false" /></defs><g
     inkscape:groupmode="layer"
     id="layer2"
     inkscape:label="Calque 2"
     transform="translate(-70.557401,-108.5563)"><path
       style="fill:none;stroke:#000000;stroke-width:0.8;stroke-linecap:butt;stroke-linejoin:miter;stroke-dasharray:none;stroke-opacity:1"
       d="m 72.284085,116.93006 8.275009,0.0329 c 0,0 0.409138,3.36473 -0.465693,4.71424 -0.785595,1.21185 -2.302852,1.67357 -3.833013,1.5824 -1.365814,-0.0814 -2.833392,-0.70048 -3.474787,-1.81317 -0.77254,-1.34021 -0.501516,-4.51642 -0.501516,-4.51642 z"
       id="path2420"
       sodipodi:nodetypes="ccsssc" /><path
       id="path2474"
       style="fill:none;fill-opacity:1;stroke:#000000;stroke-width:0.8;stroke-linecap:round;stroke-linejoin:round;stroke-dasharray:none;stroke-opacity:1;stop-color:#000000"
       d="m 81.53478,117.7266 a 1.6044409,1.4714033 1.8704266 0 1 0.5471,-0.0695 1.6044409,1.4714033 1.8704266 0 1 1.555561,1.52298 v 0 a 1.6044409,1.4714033 1.8704266 0 1 -1.651612,1.41826 1.6044409,1.4714033 1.8704266 0 1 -0.541365,-0.10503" /><path
       style="fill:none;stroke:#000000;stroke-width:1.41241;stroke-linecap:round;stroke-linejoin:round;stroke-dasharray:none;stroke-opacity:1"
       d="m 54.193061,124.86427 c 1.651749,1.53377 6.489009,1.76973 6.489009,1.76973 l -0.825873,0.35395 h 5.230535 m 10.893671,-2.12368 c -1.651749,1.53377 -6.489009,1.76973 -6.489009,1.76973 l 0.825873,0.35395 h -5.230535"
       id="path3379"
       transform="matrix(0.52433771,0,0,0.61185001,42.512225,46.351848)"
       inkscape:original-d="m 54.193061,124.86427 c 1.651749,1.53377 6.489009,1.76973 6.489009,1.76973 l -0.825873,0.35395 h 5.230535"
       inkscape:path-effect="#path-effect3381"
       class="UnoptimicedTransforms" /><path
       style="fill:none;stroke:#8d8d8d;stroke-width:0.8;stroke-linecap:butt;stroke-linejoin:miter;stroke-dasharray:none;stroke-opacity:1"
       d="m 73.992629,116.03348 c -0.607929,-0.72263 -1.173717,-1.28583 -0.557268,-1.95812 0.524992,-0.57255 1.469803,0.0734 1.570483,-0.4196 0.117904,-0.57736 -1.013214,-0.83919 -1.646473,-1.7017 -0.460111,-1.01459 0.817924,-1.97229 1.950437,-1.56183 0.560803,0.0939 0.932971,0.81249 1.393171,0.74595 0.627085,-0.0907 0.366049,-1.21701 1.038546,-1.67839 2.453303,-1.48346 4.225369,0.55495 3.495589,2.3311 -0.335303,1.3365 -3.882609,1.44838 -4.052858,2.26116 -0.09849,0.7968 0.806965,0.87036 0.354626,1.37535 -0.786333,0.38058 -3.693448,-0.90748 -2.558367,0.58277"
       id="path3383"
       sodipodi:nodetypes="cssccsccccc" /></g></svg>
