<?xml version="1.0" encoding="UTF-8" standalone="no"?>
<!-- Created with Inkscape (http://www.inkscape.org/) -->

<svg
   width="19.590034mm"
   height="14.885544mm"
   viewBox="0 0 19.590034 14.885544"
   version="1.1"
   id="svg5"
   xml:space="preserve"
   inkscape:version="1.2.2 (b0a8486541, 2022-12-01)"
   sodipodi:docname="braman icons backup.svg"
   xmlns:inkscape="http://www.inkscape.org/namespaces/inkscape"
   xmlns:sodipodi="http://sodipodi.sourceforge.net/DTD/sodipodi-0.dtd"
   xmlns="http://www.w3.org/2000/svg"
   xmlns:svg="http://www.w3.org/2000/svg"><sodipodi:namedview
     id="namedview7"
     pagecolor="#ffffff"
     bordercolor="#666666"
     borderopacity="1.0"
     inkscape:showpageshadow="2"
     inkscape:pageopacity="0.0"
     inkscape:pagecheckerboard="0"
     inkscape:deskcolor="#d1d1d1"
     inkscape:document-units="mm"
     showgrid="false"
     inkscape:zoom="3.3638608"
     inkscape:cx="178.66375"
     inkscape:cy="308.27673"
     inkscape:window-width="2153"
     inkscape:window-height="1278"
     inkscape:window-x="191"
     inkscape:window-y="35"
     inkscape:window-maximized="0"
     inkscape:current-layer="layer2" /><defs
     id="defs2"><inkscape:path-effect
       effect="mirror_symmetry"
       start_point="102.58601,107.45252"
       end_point="102.58601,113.8485"
       center_point="102.58601,110.65051"
       id="path-effect6492-3"
       is_visible="true"
       lpeversion="1.2"
       lpesatellites=""
       mode="free"
       discard_orig_path="false"
       fuse_paths="false"
       oposite_fuse="false"
       split_items="false"
       split_open="false"
       link_styles="false" /></defs><g
     inkscape:label="Calque 1"
     inkscape:groupmode="layer"
     id="layer1"
     transform="translate(-48.273004,-66.454359)"><path
       style="fill:none;stroke:#fefefe;stroke-width:0.75048;stroke-linecap:round;stroke-linejoin:round;stroke-dasharray:none;stroke-opacity:1"
       d="m 54.408396,71.151479 c 0,0 -0.17456,1.41358 -0.30547,1.94624 -0.13092,0.53266 -1.04733,1.59797 -1.04733,1.59797 0,0 -0.69821,-0.041 -0.96004,-0.69655 -0.43192,-1.26971 -0.36455,-2.82783 -1.52735,-3.64665 l -1.92009,0.24584 c 0,0 0.96004,0.32779 1.26551,1.06531 0.30547,0.73753 -0.43638,3.81056 0.61094,5.53146 1.04733,1.7209 2.61831,1.84382 2.61831,1.84382 0,0 1.15512,0.99873 1.27643,1.17799 0.37975,0.56117 -0.36002,0.69655 -0.36002,0.69655 l 8.11676,0.0512 c 0,0 -0.76133,-0.13766 -0.0873,-0.9219 0.31981,-0.37209 0.96004,-0.59412 1.78917,-1.4136 0.82914,-0.81947 0.7855,-1.84382 0.52366,-2.3355 -0.26183,-0.49169 -1.17823,-1.14727 -1.74553,-2.33551 -0.5673,-1.18823 -0.65458,-2.82718 -0.65458,-2.82718"
       id="path6486-5"
       sodipodi:nodetypes="csccccsscsccssssc" /><path
       style="fill:none;stroke:#fefefe;stroke-width:1.39597;stroke-linecap:round;stroke-linejoin:round;stroke-dasharray:none;stroke-opacity:1"
       d="m 96.885238,113.8485 c 0,0 0.61179,-1.30701 2.335924,-2.00222 1.724138,-0.69522 2.669628,-0.69522 2.669628,-0.69522 0,0 -0.80645,-0.13904 -0.88988,-0.77864 -0.0834,-0.6396 0.44478,-1.86857 0.69522,-2.44716 0.20162,-0.4658 0.88988,-0.47274 0.88988,-0.47274 m 5.70077,6.39598 c 0,0 -0.61179,-1.30701 -2.33592,-2.00222 -1.72414,-0.69522 -2.66963,-0.69522 -2.66963,-0.69522 0,0 0.80645,-0.13904 0.88988,-0.77864 0.0834,-0.6396 -0.44478,-1.86857 -0.69522,-2.44716 -0.20162,-0.4658 -0.88988,-0.47274 -0.88988,-0.47274"
       id="path6490-8"
       inkscape:path-effect="#path-effect6492-3"
       inkscape:original-d="m 96.885238,113.8485 c 0,0 0.61179,-1.30701 2.335924,-2.00222 1.724138,-0.69522 2.669628,-0.69522 2.669628,-0.69522 0,0 -0.80645,-0.13904 -0.88988,-0.77864 -0.0834,-0.6396 0.44478,-1.86857 0.69522,-2.44716 0.20162,-0.4658 0.88988,-0.47274 0.88988,-0.47274"
       class="UnoptimicedTransforms"
       sodipodi:nodetypes="cscssc"
       transform="matrix(0.53834241,0,0,0.59531322,2.9455592,2.9019737)" /><path
       style="fill:none;stroke:#fefefe;stroke-width:0.792871;stroke-linecap:round;stroke-linejoin:round;stroke-dasharray:none;stroke-opacity:1"
       d="m 64.640446,73.940669 c -0.66899,-0.15662 -1.1771,-0.48663 -1.33638,-1.05045 -0.43428,-2.37618 2.37026,-2.94265 3.46148,-1.83465 1.9328,2.19873 -0.69159,3.48048 -1.18257,5.65544 0.0674,0.87719 0.38919,0.98096 0.81894,0.86631"
       id="path6494-3"
       sodipodi:nodetypes="ccccc" /><ellipse
       style="font-variation-settings:normal;fill:none;fill-opacity:1;stroke:#ababab;stroke-width:0.72606;stroke-linecap:round;stroke-linejoin:round;stroke-miterlimit:4;stroke-dasharray:none;stroke-dashoffset:0;stroke-opacity:1;stop-color:#000000"
       id="path6548-1"
       cx="55.341122"
       cy="74.648338"
       rx="0.33477083"
       ry="0.37959498" /><ellipse
       style="font-variation-settings:normal;fill:none;fill-opacity:1;stroke:#ababab;stroke-width:0.761922;stroke-linecap:round;stroke-linejoin:round;stroke-miterlimit:4;stroke-dasharray:none;stroke-dashoffset:0;stroke-opacity:1;stop-color:#000000"
       id="path6548-0-3"
       cx="56.910908"
       cy="77.118431"
       rx="0.38632733"
       ry="0.3622326" /><ellipse
       style="font-variation-settings:normal;fill:none;fill-opacity:1;stroke:#ababab;stroke-width:0.761922;stroke-linecap:round;stroke-linejoin:round;stroke-miterlimit:4;stroke-dasharray:none;stroke-dashoffset:0;stroke-opacity:1;stop-color:#000000"
       id="path6548-7-2"
       cx="58.156261"
       cy="74.648338"
       rx="0.38632733"
       ry="0.3622326" /><ellipse
       style="font-variation-settings:normal;fill:none;fill-opacity:1;stroke:#ababab;stroke-width:0.761922;stroke-linecap:round;stroke-linejoin:round;stroke-miterlimit:4;stroke-dasharray:none;stroke-dashoffset:0;stroke-opacity:1;stop-color:#000000"
       id="path6548-7-6-5"
       cx="59.897121"
       cy="77.118431"
       rx="0.38632733"
       ry="0.3622326" /><ellipse
       style="font-variation-settings:normal;fill:none;fill-opacity:1;stroke:#ababab;stroke-width:0.737095;stroke-linecap:round;stroke-linejoin:round;stroke-miterlimit:4;stroke-dasharray:none;stroke-dashoffset:0;stroke-opacity:1;stop-color:#000000"
       id="path6548-7-3-1"
       cx="56.628895"
       cy="72.436302"
       rx="0.34958145"
       ry="0.37464589" /><ellipse
       style="font-variation-settings:normal;fill:none;fill-opacity:1;stroke:#ababab;stroke-width:0.726687;stroke-linecap:round;stroke-linejoin:round;stroke-miterlimit:4;stroke-dasharray:none;stroke-dashoffset:0;stroke-opacity:1;stop-color:#000000"
       id="path6548-7-0-8"
       cx="59.798855"
       cy="72.436302"
       rx="0.33512232"
       ry="0.37985042" /><ellipse
       style="font-variation-settings:normal;fill:none;fill-opacity:1;stroke:#ababab;stroke-width:0.710745;stroke-linecap:round;stroke-linejoin:round;stroke-miterlimit:4;stroke-dasharray:none;stroke-dashoffset:0;stroke-opacity:1;stop-color:#000000"
       id="path6548-00-1"
       cx="62.53294"
       cy="77.171013"
       rx="0.31464973"
       ry="0.38701019" /><ellipse
       style="font-variation-settings:normal;fill:none;fill-opacity:1;stroke:#ababab;stroke-width:0.72606;stroke-linecap:round;stroke-linejoin:round;stroke-miterlimit:4;stroke-dasharray:none;stroke-dashoffset:0;stroke-opacity:1;stop-color:#000000"
       id="path6548-6-4"
       cx="60.831264"
       cy="74.648338"
       rx="0.33477083"
       ry="0.37959498" /><ellipse
       style="font-variation-settings:normal;fill:none;fill-opacity:1;stroke:#ababab;stroke-width:0.718475;stroke-linecap:round;stroke-linejoin:round;stroke-miterlimit:4;stroke-dasharray:none;stroke-dashoffset:0;stroke-opacity:1;stop-color:#000000"
       id="path6548-9-3"
       cx="53.840633"
       cy="77.118431"
       rx="0.3246724"
       ry="0.38326707" /></g></svg>
