<?xml version="1.0" encoding="UTF-8" standalone="no"?>
<!-- Created with Inkscape (http://www.inkscape.org/) -->

<svg
   width="13.378481mm"
   height="19.22863mm"
   viewBox="0 0 13.378481 19.22863"
   version="1.1"
   id="svg5"
   xml:space="preserve"
   inkscape:version="1.2.2 (b0a8486541, 2022-12-01)"
   sodipodi:docname="braman icons backup.svg"
   xmlns:inkscape="http://www.inkscape.org/namespaces/inkscape"
   xmlns:sodipodi="http://sodipodi.sourceforge.net/DTD/sodipodi-0.dtd"
   xmlns="http://www.w3.org/2000/svg"
   xmlns:svg="http://www.w3.org/2000/svg"><sodipodi:namedview
     id="namedview7"
     pagecolor="#ffffff"
     bordercolor="#666666"
     borderopacity="1.0"
     inkscape:showpageshadow="2"
     inkscape:pageopacity="0.0"
     inkscape:pagecheckerboard="0"
     inkscape:deskcolor="#d1d1d1"
     inkscape:document-units="mm"
     showgrid="false"
     inkscape:zoom="3.3638608"
     inkscape:cx="178.66375"
     inkscape:cy="308.27673"
     inkscape:window-width="2153"
     inkscape:window-height="1278"
     inkscape:window-x="191"
     inkscape:window-y="35"
     inkscape:window-maximized="0"
     inkscape:current-layer="layer2" /><defs
     id="defs2" /><g
     inkscape:label="Calque 1"
     inkscape:groupmode="layer"
     id="layer1"
     transform="translate(-16.411745,-62.633627)"><path
       style="fill:none;stroke:#fefefe;stroke-width:0.8;stroke-linecap:round;stroke-linejoin:round;stroke-dasharray:none;stroke-opacity:1"
       d="m 29.390227,63.033629 -0.03777,17.65514 -0.358839,0.75319 -6.805947,0.0203 -0.254965,-0.79374 -0.0094,-17.62668"
       id="path8936-0"
       sodipodi:nodetypes="cccccc" /><path
       style="fill:none;stroke:#ababab;stroke-width:0.8;stroke-linecap:round;stroke-linejoin:round;stroke-dasharray:none;stroke-opacity:1"
       d="m 18.789621,67.297019 c -0.506712,0.27548 -0.440619,0.75228 0,1.04457 0,0 0.257966,0.2743 -0.380767,0.71221 -0.65657,0.45016 -1.549996,1.04459 -1.554799,2.16037 l -0.04231,9.82847 h 3.881707"
       id="path8940-5"
       sodipodi:nodetypes="ccsscc" /><path
       style="fill:none;stroke:#fefefe;stroke-width:0.8;stroke-linecap:round;stroke-linejoin:miter;stroke-dasharray:none;stroke-opacity:1"
       d="m 23.947349,80.566389 3.45e-4,-3.51625 c 5.9e-5,-0.5953 -0.316287,-0.7158 -0.499487,-0.70967 -0.1832,0.006 -0.517236,0.0712 -0.539772,0.63786 l 10e-4,1.33029"
       id="path8946-4"
       sodipodi:nodetypes="cszcc" /><path
       style="fill:none;stroke:#fefefe;stroke-width:0.8;stroke-linecap:round;stroke-linejoin:miter;stroke-dasharray:none;stroke-opacity:1"
       d="m 28.283855,80.462519 3.46e-4,-3.51625 c 5.8e-5,-0.59531 -0.316287,-0.7158 -0.499487,-0.70967 -0.1832,0.006 -0.517236,0.0712 -0.539773,0.63786 l 10e-4,1.33029"
       id="path8952-1"
       sodipodi:nodetypes="cszcc" /><path
       style="fill:none;stroke:#fefefe;stroke-width:0.8;stroke-linecap:round;stroke-linejoin:miter;stroke-dasharray:none;stroke-opacity:1"
       d="m 26.152234,80.548809 3.46e-4,-3.51625 c 5.8e-5,-0.59531 -0.316288,-0.7158 -0.499487,-0.70967 -0.1832,0.006 -0.517237,0.0712 -0.539773,0.63786 l 10e-4,1.33029"
       id="path8954-8"
       sodipodi:nodetypes="cszcc" /><path
       style="fill:none;stroke:#ababab;stroke-width:0.8;stroke-linecap:round;stroke-linejoin:round;stroke-dasharray:none;stroke-opacity:1"
       d="m 23.94191,75.001039 -0.885994,-1.84002 2.738525,-1.51678 1.422959,2.51138 -1.42296,0.92002"
       id="path8956-4"
       sodipodi:nodetypes="ccccc" /><path
       style="fill:none;stroke:#ababab;stroke-width:0.8;stroke-linecap:round;stroke-linejoin:round;stroke-dasharray:none;stroke-opacity:1"
       d="m 25.27185,70.585089 2.61455,-0.33925 0.40559,2.66129 -0.598828,0.0704"
       id="path8958-2"
       sodipodi:nodetypes="cccc" /><path
       style="fill:none;stroke:#ababab;stroke-width:0.8;stroke-linecap:round;stroke-linejoin:round;stroke-dasharray:none;stroke-opacity:1"
       d="m 26.700558,69.364539 0.241635,-0.74596 -3.007007,-0.74595 -0.864907,2.95501 1.256193,0.44474"
       id="path8960-2"
       sodipodi:nodetypes="ccccc" /></g></svg>
